<svg width="29" height="28" viewBox="0 0 29 28" fill="none" xmlns="http://www.w3.org/2000/svg">
<path fill-rule="evenodd" clip-rule="evenodd" d="M0.078125 27V0.0579834H16.9501V4.99798H5.32212V11.154H15.8481V15.828H5.32212V22.06H16.9501V27H0.078125ZM21.5481 23.808C21.5481 22.8453 21.8838 22.0283 22.5551 21.357C23.2265 20.6856 24.0435 20.35 25.0061 20.35C25.4875 20.35 25.9435 20.4386 26.3741 20.616C26.8048 20.7933 27.1785 21.0403 27.4951 21.357C27.8118 21.6737 28.0588 22.041 28.2361 22.459C28.4135 22.877 28.5021 23.3266 28.5021 23.808C28.5021 24.2893 28.4135 24.739 28.2361 25.157C28.0588 25.575 27.8118 25.9423 27.4951 26.259C27.1785 26.5757 26.8048 26.8226 26.3741 27C25.9435 27.1773 25.4875 27.266 25.0061 27.266C24.0435 27.266 23.2265 26.9303 22.5551 26.259C21.8838 25.5876 21.5481 24.7707 21.5481 23.808Z" fill="white"/>
</svg>
